De Gelukkige Huisvrouw (2010) 720p

The Happy Housewife   

Vanaf 28 september in de videotheek     
  
 
  Nederland
Komedie / Drama
100 minuten

geregisseerd door Antoinette Beumer
met Carice van Houten, Waldemar Torenstra en René van 't Hof

Maak kennis met Lea Meijer, een vrouw die jong, mooi, rijk en gelukkig getrouwd is met Harry. Op een kwade dag besluit Harry dat hij een kind wil. Lea stemt toe, nadat ze zijn overeengekomen dat hij haar elke avond zal nemen. En met een fulltime au-pair hoeft haar leven toch niet echt te veranderen? De bevalling wordt een langdurige hel compleet met tangverlossing en totaalruptuur. Maar Junior blijkt gezond en Harry is dolgelukkig. Maar Lea niet.


English

Lea is an immaculate 30-something wife whose husband's job in real estate allows her an enviably glossy lifestyle. The word 'emancipation' simply isn't in her vocabulary and as long as the money rolls in, all is rosy. So, when Harry Jr. arrives, she is a little traumatized at having to swap canapés for nappies. The result is a brave but hilarious story about a woman who fights to get her past - and her present - firmly back on track







Release Name : De.Gelukkige.Huisvrouw.2010.DUTCH.720p.BluRay.x264-

Source : Retail BluRay 

HDEX release date : 2010/09/26 
Video : 1280x544 @ 4636Kbps 
Audio : Dutch DTS 1509Kbps 
Subtitles : English, Dutch HI 
Rating : 7.2/10 185 votes
Spotinformatie 
Categorie : Beeld 
Formaat : x264HD 
Bron : Retail

Format                           : Matroska
File size                        : 4.38 GiB
Duration                         : 1h 41mn
Overall bit rate                 : 6 142 Kbps
Encoded date                     : UTC 2010-09-25 13:59:09
Writing application              : mkvmerge v4.0.0 ('The Stars were mine') gemaakt op Jun  6 2010 16:18:42
Writing library                  : libebml v1.0.0 + libmatroska v1.0.0

Video
ID                               : 1
Format                           : AVC
Format/Info                      : Advanced Video Codec
Format profile                   : High@L4.1
Format settings, CABAC           : Yes
Format settings, ReFrames        : 5 frames
Muxing mode                      : Container profile=Unknown@4.1
Codec ID                         : V_MPEG4/ISO/AVC
Duration                         : 1h 41mn
Bit rate                         : 4 510 Kbps
Nominal bit rate                 : 4 636 Kbps
Width                            : 1 280 pixels
Height                           : 544 pixels
Display aspect ratio             : 2.35
Frame rate                       : 24.000 fps
Resolution                       : 24 bits
Colorimetry                      : 4:2:0
Scan type                        : Progressive
Bits/(Pixel*Frame)               : 0.270
Stream size                      : 3.21 GiB (73%)
Writing library                  : x264 core 105 r1724 b02df7b
Encoding settings                : cabac=1 / ref=5 / deblock=1:0:0 / analyse=0x3:0x133 / me=umh / subme=7 / psy=1 / psy_rd=1.00:0.00 / mixed_ref=1 / me_range=16 / chroma_me=1 / trellis=1 / 8x8dct=1 / cqm=0 / deadzone=21,11 / fast_pskip=1 / chroma_qp_offset=-2 / threads=6 / sliced_threads=0 / nr=0 / decimate=1 / interlaced=0 / constrained_intra=0 / bframes=3 / b_pyramid=2 / b_adapt=2 / b_bias=0 / direct=3 / weightb=1 / open_gop=0 / weightp=2 / keyint=250 / keyint_min=23 / scenecut=40 / intra_refresh=0 / rc=2pass / mbtree=0 / bitrate=4636 / ratetol=1.0 / qcomp=0.60 / qpmin=10 / qpmax=51 / qpstep=4 / cplxblur=20.0 / qblur=0.5 / ip_ratio=1.40 / pb_ratio=1.30 / aq=1:1.00
Language                         : Dutch

Audio
ID                               : 2
Format                           : DTS
Format/Info                      : Digital Theater Systems
Codec ID                         : A_DTS
Duration                         : 1h 41mn
Bit rate mode                    : Constant
Bit rate                         : 1 510 Kbps
Channel(s)                       : 6 channels
Channel positions                : Front: L C R, Surround: L R, LFE
Sampling rate                    : 48.0 KHz
Resolution                       : 24 bits
Stream size                      : 1.08 GiB (25%)
Language                         : Dutch

Text #1
ID                               : 3
Format                           : UTF-8
Codec ID                         : S_TEXT/UTF8
Codec ID/Info                    : UTF-8 Plain Text

Text #2
ID                               : 4
Format                           : UTF-8
Codec ID                         : S_TEXT/UTF8
Codec ID/Info                    : UTF-8 Plain Text
Language                         : Dutch

Menu
00:00:00.000                     : en:00:00:00.000
00:12:11.125                     : en:00:12:11.125
00:25:53.250                     : en:00:25:53.250
00:36:30.333                     : en:00:36:30.333
00:53:30.417                     : en:00:53:30.417
01:09:30.250                     : en:01:09:30.250
01:17:36.292                     : en:01:17:36.292
01:30:40.167                     : en:01:30:40.167
01:38:26.750                     : en:01:38:26.750


 
Ondertitels : Nederlands (instelbaar)
Engels (instelbaar)
 
Genre : Komedie
Drama 

 
Weblink :  http://www.moviemeter.nl/film/61994
Weblink :  http://www.imdb.com/title/tt0920459 
 
******************************************

Brought to you by
Pioen 


2Lions Team

meer zien??
Kom dan eens kijken op ons forum 
                            
http://www.2lions-site.nl


2Lions the site to be for all your Dutch MOVIES and more

******************************************


DON T HIT AND RUN Niet gelijk afhaken als de FILM binnen is blijf seeden. 

Don`t quit after you finished the download, but keep seeding


There are fake torrents from uploaders who use our team name.
Those are not ours, or members from our team.
We 2Lions-Team are not responsible for the fake posts on our name

Wij 2Lions-Team zijn niet verantwoordelijk voor die zieke FAKE posten die op onze naam worden gedaan



Please check our site !!!
                          
